# xmcd
#
# Track frame offsets:
#	150
#	14075
#	27914
#	43237
#	54284
#	62712
#	78502
#	87794
#	97535
#	105892
#	122960
#	133892
#	149657
#
# Disc length: 2159 seconds
#
# Revision: 0
# Processed by: cddbd v1.5.2PL0 Copyright (c) Steve Scherf et al.
# Submitted via: EasyCDDAExtractor 10.2.0.1
#
DISCID=ac086d0d
DTITLE=The Smoky Mountain Boys - Back Then
DYEAR=2005
DGENRE=Gospel
TTITLE0=Back Then
TTITLE1=Everyday
TTITLE2=The Voice
TTITLE3=I'm Not Afraid To Cross That River
TTITLE4=On The Sea Of Life
TTITLE5=Today I Want To Thank You
TTITLE6=You'd Better Heed God
TTITLE7=The Rock Trembles Not
TTITLE8=Take A Moment And Live
TTITLE9=Press Through The Crowd
TTITLE10=Lend A Helping Hand
TTITLE11=I Was, I Am, I Will
TTITLE12=What's Between You And God
EXTD=
EXTT0=
EXTT1=
EXTT2=
EXTT3=
EXTT4=
EXTT5=
EXTT6=
EXTT7=
EXTT8=
EXTT9=
EXTT10=
EXTT11=
EXTT12=
PLAYORDER=
